# This file uses centimeters as units for non-parametric coordinates.

mtllib IcebergLarge.mtl
g default
v -95.433655 301.975708 59.523392
v 80.775146 303.625946 99.318039
v -124.051514 301.942688 -67.116302
v 121.896667 303.570251 -74.403915
v -128.321838 -0.997245 59.768623
v -96.531448 -0.997245 89.017731
v -99.096176 110.690842 93.367805
v -132.110458 110.690849 63.748817
v 107.859917 -0.997245 103.373177
v 76.047913 -0.997245 132.326767
v 74.936943 110.690849 131.895477
v 105.714874 110.690842 102.528938
v -97.906853 217.444962 98.767921
v -129.111267 217.434891 70.377228
v 75.285255 217.394852 130.132217
v 107.578110 217.402374 102.374229
v -131.291214 217.395309 -104.867134
v -167.211288 217.452438 -70.024490
v 121.642082 217.370239 -105.684120
v 154.630005 217.367249 -75.710907
v -125.756660 110.690849 -103.276253
v -159.037369 110.690849 -71.689713
v 120.354736 110.690849 -103.063011
v 154.540344 110.690849 -73.524696
v -153.255508 -0.997245 -68.769081
v -121.783676 -0.997245 -98.018188
v 154.181152 -0.997245 -71.457649
v 118.735703 -0.997245 -98.184746
v -120.055878 300.779388 60.262299
v -127.560150 286.385101 64.628983
v -93.883980 300.782074 84.797691
v -96.394470 286.444214 93.931114
v 76.187981 301.386292 121.802986
v 75.877747 286.213989 129.181305
v 100.729332 301.450653 101.275620
v 107.107521 286.268677 102.747795
v -152.623322 300.787079 -66.047501
v -161.901428 286.488800 -68.479614
v -129.432007 286.114868 -98.760178
v -126.755646 300.543701 -89.915627
v 120.199104 301.162506 -97.791130
v 121.456970 286.033752 -105.204849
v 156.202698 286.028931 -74.968918
v 149.024796 301.239594 -73.578598
v 109.932625 110.690842 84.303726
v 113.136696 217.425888 84.337868
v -133.349121 -0.997245 41.239002
v -139.007614 110.690842 43.598904
v -134.292191 217.424286 47.600845
v -125.121735 298.063690 62.104782
v -115.337143 286.415436 81.881096
v -95.063271 298.099030 90.508316
v -110.552155 300.765686 75.393959
v -123.931503 300.776611 41.800220
v -132.464752 286.321686 44.092392
v 75.825111 298.180481 126.834465
v 94.816322 286.202271 118.732964
v 104.760483 298.248535 102.293549
v 92.048683 301.363464 114.769623
v 112.243523 286.408508 84.617889
v 104.602486 301.487091 83.662994
v -158.367020 298.127350 -67.220551
v -144.242325 300.760773 -80.575058
v -128.242981 297.774658 -95.228561
v -149.744995 286.400421 -85.945107
v 120.818161 297.951294 -102.833153
v 137.907944 301.107056 -88.125656
v 154.258774 297.992615 -74.360863
v 141.608292 285.955261 -92.156670
v -111.295837 301.828918 58.583275
v -128.437897 258.446899 68.353226
v -97.227829 258.487152 97.261169
v -93.506256 301.823975 74.604126
v 77.670982 303.031433 113.025917
v 94.866272 303.069305 99.690659
v 75.641304 258.286652 129.904434
v 107.918350 258.316803 102.641655
v -130.949585 258.288574 -102.398911
v -165.693008 258.517120 -69.272736
v -142.203873 301.822205 -65.512367
v -124.343025 301.698059 -80.933006
v 119.971413 302.888916 -88.981247
v 155.776337 258.176208 -75.589912
v 121.743889 258.188324 -106.003784
v 139.580933 302.942352 -72.434898
v -115.788406 -0.997245 76.802841
v -98.134529 54.846798 90.957176
v -118.840668 110.690842 80.924118
v -130.829788 54.846798 61.346352
v -98.774948 166.534897 96.720749
v -116.929077 217.440109 87.428070
v -130.936539 166.534897 67.800774
v 95.304848 -0.997245 120.407394
v 106.421455 54.846798 102.903511
v 93.733162 110.690842 119.729591
v 75.372894 54.846798 132.248489
v 106.472023 166.534897 102.344582
v 94.657913 217.391891 118.940033
v 74.979095 166.534897 130.992966
v -153.365616 217.437668 -89.616188
v -128.952255 166.534897 -104.887314
v -145.895721 110.690842 -89.611549
v -163.925781 166.534897 -71.159416
v 140.826721 217.356537 -92.856750
v 154.413834 166.534897 -74.818909
v 140.561203 110.690842 -90.624146
v 121.114708 166.534897 -104.700081
v -123.528336 54.846798 -100.850822
v -141.040634 -0.997245 -85.803299
v -155.746933 54.846798 -70.627510
v 154.421967 54.846798 -72.439034
v 139.594894 -0.997245 -87.579636
v 119.555130 54.846798 -100.784294
v -96.633385 302.026550 41.463310
v 82.538750 303.822052 81.357300
v 112.952126 -0.997245 84.843552
v -117.752090 54.846798 78.482719
v -118.179031 166.534882 84.888535
v 94.300819 54.846798 120.094276
v 94.038277 166.534882 119.261742
v -150.247894 166.534897 -90.137833
v 140.656311 166.534897 -91.980591
v -143.083252 54.846802 -87.982986
v 140.155655 54.846802 -89.135056
v 110.861671 54.846798 84.530434
v 111.326454 166.534882 84.249809
v -137.121445 54.846798 42.165207
v -137.121445 166.534882 46.047577
v -113.369888 298.081726 78.779541
v -129.811661 298.023041 42.635582
v 93.655952 298.193481 117.347633
v 109.452934 298.338348 84.350838
v -147.346130 298.070374 -83.501976
v 140.334839 297.912476 -90.643219
v -113.365875 301.850769 41.408661
v -116.252655 258.467560 85.594757
v 97.209541 303.141541 82.481506
v 95.033783 258.274689 119.013771
v -152.474731 258.457794 -88.100883
v 141.458160 258.133270 -92.904984
v 113.456917 258.410706 84.537064
v -133.349121 258.404327 46.348297
v -107.085159 301.766541 70.828148
v 90.490532 302.827332 110.910736
v -139.397766 301.764465 -76.967880
v 134.597778 302.641174 -84.365051
vt 0.242043 0.585115
vt 0.623938 0.537909
vt 0.209112 0.854371
vt 0.662914 0.869072
vt 0.208918 0.063318
vt 0.255421 0.064586
vt 0.253103 0.181855
vt 0.206019 0.180188
vt 0.487537 0.068784
vt 0.442260 0.068019
vt 0.439719 0.185350
vt 0.485174 0.186278
vt 0.253373 0.293640
vt 0.208729 0.292077
vt 0.438200 0.297697
vt 0.483910 0.298609
vt 0.004711 0.284924
vt 0.992157 0.293113
vt 0.057859 0.285204
vt 0.725976 0.300142
vt 0.678465 0.300615
vt 0.011842 0.169256
vt 0.982317 0.180779
vt 0.060695 0.173433
vt 0.724476 0.188470
vt 0.676488 0.188765
vt 0.070557 0.056256
vt 0.024370 0.051946
vt 0.974038 0.063244
vt 0.675296 0.071620
vt 0.722149 0.071427
vt 0.191298 0.588473
vt 0.156336 0.577044
vt 0.202210 0.364180
vt 0.247497 0.534426
vt 0.239268 0.497571
vt 0.250085 0.366235
vt 0.619795 0.492585
vt 0.626396 0.457085
vt 0.437508 0.370000
vt 0.664649 0.536130
vt 0.697705 0.524158
vt 0.482082 0.370949
vt 0.153899 0.860082
vt 0.118118 0.869949
vt 0.056490 0.357785
vt 0.196540 0.937295
vt 0.991392 0.365939
vt 0.008048 0.357076
vt 0.205964 0.901306
vt 0.662797 0.916467
vt 0.671993 0.952321
vt 0.726529 0.372027
vt 0.752299 0.879490
vt 0.677236 0.372674
vt 0.716501 0.872699
vt 0.229621 0.122651
vt 0.229758 0.239615
vt 0.464182 0.127045
vt 0.462460 0.244617
vt 0.033905 0.230589
vt 0.700737 0.247194
vt 0.042454 0.112844
vt 0.698872 0.130240
vt 0.505909 0.128000
vt 0.504253 0.245488
vt 0.185688 0.120818
vt 0.184115 0.237740
vt 0.204450 0.549240
vt 0.170230 0.628219
vt 0.653759 0.502308
vt 0.682687 0.570895
vt 0.164755 0.892617
vt 0.703037 0.904909
vt 0.204589 0.625685
vt 0.228440 0.335655
vt 0.655276 0.572832
vt 0.460998 0.341134
vt 0.033312 0.327637
vt 0.701740 0.343096
vt 0.502974 0.341939
vt 0.182334 0.334164
vt 0.218603 0.565019
vt 0.644712 0.516591
vt 0.180506 0.877447
vt 0.689233 0.890534
vt 0.231361 0.063995
vt 0.254126 0.123339
vt 0.228689 0.181110
vt 0.206949 0.121771
vt 0.253365 0.240387
vt 0.230459 0.292842
vt 0.207617 0.238733
vt 0.465645 0.068320
vt 0.486153 0.127460
vt 0.463183 0.185807
vt 0.440645 0.126553
vt 0.484540 0.245101
vt 0.461782 0.298156
vt 0.438939 0.244130
vt 0.033241 0.283820
vt 0.006971 0.228632
vt 0.987870 0.239510
vt 0.037293 0.171622
vt 0.058574 0.232068
vt 0.701671 0.300416
vt 0.677627 0.247312
vt 0.699622 0.188698
vt 0.725219 0.246965
vt 0.017985 0.110482
vt 0.978077 0.122000
vt 0.048345 0.054174
vt 0.064986 0.114685
vt 0.675895 0.130202
vt 0.697920 0.071553
vt 0.723728 0.129929
vt 0.237585 0.620907
vt 0.625303 0.573241
vt 0.507350 0.069279
vt 0.504801 0.186709
vt 0.503800 0.298982
vt 0.188628 0.062225
vt 0.183791 0.179115
vt 0.184449 0.291288
vt 0.179575 0.585366
vt 0.189418 0.531767
vt 0.225389 0.365106
vt 0.245738 0.521480
vt 0.211378 0.556477
vt 0.183384 0.627977
vt 0.146420 0.626700
vt 0.179400 0.363464
vt 0.620694 0.480680
vt 0.669129 0.485169
vt 0.460497 0.370448
vt 0.674957 0.533472
vt 0.648621 0.509074
vt 0.707374 0.568726
vt 0.502087 0.371317
vt 0.670877 0.571717
vt 0.141818 0.864281
vt 0.171528 0.885424
vt 0.203357 0.913492
vt 0.149442 0.910075
vt 0.033359 0.357222
vt 0.664926 0.928484
vt 0.696414 0.898228
vt 0.728537 0.875551
vt 0.719332 0.921838
vt 0.701227 0.372350
vt 0.209424 0.590188
vt 0.206166 0.334931
vt 0.252012 0.336638
vt 0.247341 0.555151
vt 0.620398 0.510450
vt 0.652174 0.538740
vt 0.437478 0.340756
vt 0.482954 0.341521
vt 0.006908 0.327371
vt 0.992053 0.336316
vt 0.056851 0.328284
vt 0.173962 0.855851
vt 0.209754 0.882774
vt 0.661177 0.898430
vt 0.678075 0.343442
vt 0.726763 0.342903
vt 0.697977 0.868674
vn 0.986288 0.011017 0.164666
vn 0.964713 0.015545 0.262845
vn 0.965383 0.020404 0.260039
vn 0.986802 0.015125 0.161225
vn 0.986456 -0.013135 0.163500
vn 0.965134 -0.013319 0.261416
vn 0.964269 0.000952 0.264924
vn 0.985603 -0.001055 0.169076
vn -0.995139 -0.028237 0.094344
vn -0.973034 -0.014619 0.230198
vn -0.967334 0.011678 0.253237
vn -0.991691 0.005727 0.128517
vn -0.888404 -0.055487 0.455697
vn -0.672956 -0.047622 0.738148
vn -0.671954 -0.046599 0.739126
vn -0.884761 -0.048106 0.463555
vn -0.272531 -0.023796 0.961853
vn -0.267359 -0.023873 0.963301
vn -0.252886 -0.024199 0.967193
vn -0.670035 -0.043473 0.741055
vn -0.886393 -0.025256 0.462243
vn -0.668823 -0.030171 0.742810
vn -0.898304 0.001818 0.439371
vn -0.234508 -0.018314 0.971942
vn -0.222325 0.004897 0.974960
vn -0.669726 0.009247 0.742551
vn -0.909085 0.023738 0.415934
vn -0.154522 -0.017945 0.987826
vn 0.680745 0.016560 0.732333
vn 0.683947 0.014200 0.729393
vn -0.149328 -0.017916 0.988625
vn 0.901044 0.027296 0.432868
vn 0.904295 0.020939 0.426395
vn 0.905383 0.001764 0.424593
vn 0.684572 0.007190 0.728910
vn -0.134653 -0.017937 0.990731
vn 0.672447 -0.000147 0.740146
vn -0.118555 -0.013186 0.992860
vn 0.896627 -0.015197 0.442525
vn 0.886447 -0.015216 0.462580
vn 0.656754 -0.004443 0.754092
vn -0.109339 0.004911 0.993992
vn -0.696229 0.001154 -0.717819
vn -0.692503 -0.047694 -0.719837
vn -0.059881 0.006806 -0.998182
vn -0.054109 -0.021671 -0.998300
vn -0.050149 -0.037569 -0.998035
vn -0.686378 -0.059166 -0.724834
vn -0.997233 -0.044590 0.059478
vn 0.043124 0.004871 -0.999058
vn 0.669039 -0.014860 -0.743078
vn 0.664876 -0.019095 -0.746710
vn 0.046819 -0.020148 -0.998700
vn 0.987557 -0.018194 0.156207
vn 0.651567 -0.024172 -0.758206
vn 0.046697 -0.035455 -0.998280
vn -0.682665 -0.056765 -0.728523
vn -0.997353 -0.053058 0.049713
vn -0.048511 -0.046761 -0.997728
vn -0.047249 -0.049846 -0.997639
vn -0.681437 -0.056004 -0.729731
vn -0.996878 -0.056047 0.055607
vn 0.629477 -0.028717 -0.776489
vn 0.043990 -0.044976 -0.998019
vn 0.617131 -0.030258 -0.786278
vn 0.041943 -0.048162 -0.997958
vn -0.008170 0.999966 -0.000934
vn -0.011909 0.999851 0.012498
vn -0.008839 0.999833 0.016023
vn -0.004737 0.999989 0.000006
vn -0.002937 0.999986 -0.004346
vn -0.007795 0.999957 -0.004989
vn 0.966017 -0.017910 0.257858
vn -0.980769 -0.049796 0.188714
vn -0.978794 -0.035024 0.201833
vn -0.980710 -0.054765 0.187641
vn -0.268618 0.957253 0.107292
vn -0.806653 0.475787 0.350625
vn -0.605224 0.479009 0.635809
vn -0.226378 0.943921 0.240345
vn -0.907208 0.133036 0.399093
vn -0.676528 0.167491 0.717117
vn -0.233877 0.131041 0.963395
vn -0.211268 0.487685 0.847071
vn -0.068859 0.962023 0.264141
vn -0.831976 0.511589 0.214692
vn -0.958935 0.129935 0.252112
vn -0.216258 0.974753 0.055574
vn -0.121726 0.465894 0.876428
vn -0.047490 0.955465 0.291257
vn -0.123311 0.120064 0.985078
vn 0.610137 0.317784 0.725773
vn 0.319258 0.863776 0.389828
vn 0.644786 0.058704 0.762106
vn 0.886969 0.073057 0.456014
vn 0.837594 0.361932 0.409195
vn 0.424397 0.887331 0.180364
vn 0.867342 0.435588 0.240792
vn 0.333844 0.938266 0.090588
vn 0.962275 0.066684 0.263780
vn -0.267248 0.962584 0.044840
vn -0.879082 0.459734 0.125936
vn -0.980630 0.143554 0.133253
vn -0.599036 0.470802 -0.647689
vn -0.672975 0.174400 -0.718811
vn -0.219736 0.943815 -0.246841
vn -0.021776 0.945968 -0.323528
vn -0.062134 0.453606 -0.889034
vn -0.067853 0.132014 -0.988923
vn 0.016369 0.456809 -0.889414
vn 0.026865 0.124739 -0.991826
vn 0.001291 0.948596 -0.316487
vn 0.611142 0.348582 -0.710631
vn 0.658570 0.061929 -0.749967
vn 0.290817 0.891221 -0.348067
vn 0.385322 0.920021 0.071326
vn 0.911148 0.379898 0.159643
vn 0.984546 0.062258 0.163685
vn -0.051521 0.998511 0.017919
vn -0.038002 0.999234 0.009301
vn -0.675482 0.072222 0.733831
vn -0.225051 0.047745 0.973176
vn -0.913319 0.053164 0.403760
vn -0.021606 0.997856 0.061781
vn -0.018550 0.997077 0.074113
vn 0.109665 0.993017 0.043478
vn 0.088301 0.995843 0.022354
vn 0.647748 0.002843 0.761850
vn 0.884117 0.004430 0.467245
vn -0.113182 0.040658 0.992742
vn -0.689445 0.077677 -0.720161
vn -0.988615 0.058625 0.138576
vn -0.064850 0.051213 -0.996580
vn -0.049674 0.998724 0.009115
vn -0.008345 0.996384 -0.084551
vn -0.003999 0.996535 -0.083075
vn 0.665953 -0.000594 -0.745993
vn 0.035460 0.044908 -0.998362
vn 0.987604 -0.007025 0.156808
vn 0.105453 0.994219 0.020226
vn 0.965703 -0.005118 0.259600
vn -0.964583 0.050265 0.258948
vn -0.052861 0.997050 0.055649
vn 0.102486 0.987521 0.119580
vn -0.044611 0.997092 -0.061790
vn 0.092494 0.989326 -0.112603
s 1
g IceBergLarge Icebergs
usemtl IceBergLargeSG
f 111/114/1 125/65/2 116/119/3 27/30/4
f 105/107/5 126/66/6 45/120/7 24/26/8
f 103/105/9 128/68/10 49/124/11 18/19/12
f 5/5/13 86/87/14 117/57/15 89/90/16
f 86/87/14 6/6/17 87/88/18 117/57/15
f 117/57/15 87/88/18 7/7/19 88/89/20
f 89/90/16 117/57/15 88/89/20 8/8/21
f 8/8/21 88/89/20 118/58/22 92/93/23
f 88/89/20 7/7/19 90/91/24 118/58/22
f 118/58/22 90/91/24 13/13/25 91/92/26
f 92/93/23 118/58/22 91/92/26 14/14/27
f 10/10/28 93/94/29 119/59/30 96/97/31
f 93/94/29 9/9/32 94/95/33 119/59/30
f 119/59/30 94/95/33 12/12/34 95/96/35
f 96/97/31 119/59/30 95/96/35 11/11/36
f 11/11/36 95/96/35 120/60/37 99/100/38
f 95/96/35 12/12/34 97/98/39 120/60/37
f 120/60/37 97/98/39 16/16/40 98/99/41
f 99/100/38 120/60/37 98/99/41 15/15/42
f 18/19/12 100/101/43 121/61/44 103/105/9
f 100/101/43 17/17/45 101/102/46 121/61/44
f 121/61/44 101/102/46 21/22/47 102/104/48
f 103/105/9 121/61/44 102/104/48 22/24/49
f 19/20/50 104/106/51 122/62/52 107/109/53
f 104/106/51 20/21/54 105/107/5 122/62/52
f 122/62/52 105/107/5 24/26/8 106/108/55
f 107/109/53 122/62/52 106/108/55 23/25/56
f 22/24/49 102/104/48 123/63/57 110/113/58
f 102/104/48 21/22/47 108/110/59 123/63/57
f 123/63/57 108/110/59 26/28/60 109/112/61
f 110/113/58 123/63/57 109/112/61 25/27/62
f 23/25/56 106/108/55 124/64/63 113/116/64
f 106/108/55 24/26/8 111/114/1 124/64/63
f 124/64/63 111/114/1 27/30/4 112/115/65
f 113/116/64 124/64/63 112/115/65 28/31/66
f 7/7/19 87/88/18 96/97/31 11/11/36
f 87/88/18 6/6/17 10/10/28 96/97/31
f 90/91/24 7/7/19 11/11/36 99/100/38
f 90/91/24 99/100/38 15/15/42 13/13/25
f 114/117/67 1/1/68 2/2/69 115/118/70
f 114/117/67 115/118/70 4/4/71 3/3/72
f 101/103/46 17/18/45 19/20/50 107/109/53
f 101/103/46 107/109/53 23/25/56 21/23/47
f 108/111/59 21/23/47 23/25/56 113/116/64
f 108/111/59 113/116/64 28/31/66 26/29/60
f 111/114/1 24/26/8 45/120/7 125/65/2
f 12/12/34 94/95/33 125/65/2 45/120/7
f 94/95/33 9/9/32 116/119/3 125/65/2
f 105/107/5 20/21/54 46/121/73 126/66/6
f 12/12/34 45/120/7 126/66/6 97/98/39
f 97/98/39 126/66/6 46/121/73 16/16/40
f 22/24/49 110/113/58 127/67/74 48/123/75
f 110/113/58 25/27/62 47/122/76 127/67/74
f 47/122/76 5/5/13 89/90/16 127/67/74
f 127/67/74 89/90/16 8/8/21 48/123/75
f 103/105/9 22/24/49 48/123/75 128/68/10
f 48/123/75 8/8/21 92/93/23 128/68/10
f 128/68/10 92/93/23 14/14/27 49/124/11
f 29/32/77 50/125/78 129/69/79 53/129/80
f 50/125/78 30/33/81 51/126/82 129/69/79
f 129/69/79 51/126/82 32/36/83 52/128/84
f 53/129/80 129/69/79 52/128/84 31/35/85
f 30/33/81 50/125/78 130/70/86 55/131/87
f 50/125/78 29/32/77 54/130/88 130/70/86
f 31/35/85 52/128/84 56/133/89 33/38/90
f 52/128/84 32/36/83 34/39/91 56/133/89
f 33/38/90 56/133/89 131/71/92 59/137/93
f 56/133/89 34/39/91 57/134/94 131/71/92
f 131/71/92 57/134/94 36/42/95 58/136/96
f 59/137/93 131/71/92 58/136/96 35/41/97
f 35/41/97 58/136/96 132/72/98 61/140/99
f 58/136/96 36/42/95 60/138/100 132/72/98
f 37/44/101 62/141/102 130/70/86 54/130/88
f 62/141/102 38/45/103 55/131/87 130/70/86
f 38/45/103 62/141/102 133/73/104 65/144/105
f 62/141/102 37/44/101 63/142/106 133/73/104
f 133/73/104 63/142/106 40/50/107 64/143/108
f 65/144/105 133/73/104 64/143/108 39/47/109
f 39/47/109 64/143/108 66/146/110 42/52/111
f 64/143/108 40/50/107 41/51/112 66/146/110
f 42/52/111 66/146/110 134/74/113 69/149/114
f 66/146/110 41/51/112 67/147/115 134/74/113
f 134/74/113 67/147/115 44/56/116 68/148/117
f 69/149/114 134/74/113 68/148/117 43/54/118
f 43/54/118 68/148/117 132/72/98 60/138/100
f 68/148/117 44/56/116 61/140/99 132/72/98
f 29/32/77 70/151/119 135/75/120 54/130/88
f 70/151/119 1/1/68 114/117/67 135/75/120
f 32/37/83 51/127/82 136/76/121 72/153/122
f 51/127/82 30/34/81 71/152/123 136/76/121
f 136/76/121 71/152/123 14/14/27 91/92/26
f 72/153/122 136/76/121 91/92/26 13/13/25
f 2/2/69 1/1/68 73/154/124 74/155/125
f 73/154/124 31/35/85 33/38/90 74/155/125
f 2/2/69 75/156/126 137/77/127 115/118/70
f 75/156/126 35/41/97 61/140/99 137/77/127
f 36/43/95 57/135/94 138/78/128 77/158/129
f 57/135/94 34/40/91 76/157/130 138/78/128
f 138/78/128 76/157/130 15/15/42 98/99/41
f 77/158/129 138/78/128 98/99/41 16/16/40
f 38/46/103 65/145/105 139/79/131 79/161/132
f 65/145/105 39/49/109 78/159/133 139/79/131
f 139/79/131 78/159/133 17/17/45 100/101/43
f 79/161/132 139/79/131 100/101/43 18/19/12
f 114/117/67 3/3/72 80/162/134 135/75/120
f 80/162/134 37/44/101 54/130/88 135/75/120
f 41/51/112 40/50/107 81/163/135 82/164/136
f 81/163/135 3/3/72 4/4/71 82/164/136
f 42/53/111 69/150/114 140/80/137 84/166/138
f 69/150/114 43/55/118 83/165/139 140/80/137
f 140/80/137 83/165/139 20/21/54 104/106/51
f 84/166/138 140/80/137 104/106/51 19/20/50
f 61/140/99 44/56/116 85/167/140 137/77/127
f 85/167/140 4/4/71 115/118/70 137/77/127
f 72/153/122 13/13/25 15/15/42 76/157/130
f 72/153/122 76/157/130 34/40/91 32/37/83
f 78/160/133 39/48/109 42/53/111 84/166/138
f 78/160/133 84/166/138 19/20/50 17/18/45
f 83/165/139 141/81/141 46/121/73 20/21/54
f 83/165/139 43/55/118 60/139/100 141/81/141
f 16/16/40 46/121/73 141/81/141 77/158/129
f 77/158/129 141/81/141 60/139/100 36/43/95
f 79/161/132 18/19/12 49/124/11 142/82/142
f 79/161/132 142/82/142 55/132/87 38/46/103
f 49/124/11 14/14/27 71/152/123 142/82/142
f 142/82/142 71/152/123 30/34/81 55/132/87
f 29/32/77 53/129/80 143/83/143 70/151/119
f 31/35/85 73/154/124 143/83/143 53/129/80
f 1/1/68 70/151/119 143/83/143 73/154/124
f 2/2/69 74/155/125 144/84/144 75/156/126
f 33/38/90 59/137/93 144/84/144 74/155/125
f 35/41/97 75/156/126 144/84/144 59/137/93
f 37/44/101 80/162/134 145/85/145 63/142/106
f 3/3/72 81/163/135 145/85/145 80/162/134
f 40/50/107 63/142/106 145/85/145 81/163/135
f 41/51/112 82/164/136 146/86/146 67/147/115
f 4/4/71 85/167/140 146/86/146 82/164/136
f 44/56/116 67/147/115 146/86/146 85/167/140
